<svg id="visual" viewBox="0 0 960 200" width="960" height="200" xmlns="http://www.w3.org/2000/svg" xmlns:xlink="http://www.w3.org/1999/xlink" version="1.1"><rect x="0" y="0" width="960" height="200" fill="#dadad9"></rect><path d="M0 71L20 73.7C40 76.3 80 81.7 120 92.8C160 104 200 121 240 116C280 111 320 84 360 81.7C400 79.3 440 101.7 480 105C520 108.3 560 92.7 600 81.5C640 70.3 680 63.7 720 73.5C760 83.3 800 109.7 840 116.3C880 123 920 110 940 103.5L960 97L960 201L940 201C920 201 880 201 840 201C800 201 760 201 720 201C680 201 640 201 600 201C560 201 520 201 480 201C440 201 400 201 360 201C320 201 280 201 240 201C200 201 160 201 120 201C80 201 40 201 20 201L0 201Z" fill="#ffffff" stroke-linecap="round" stroke-linejoin="miter"></path></svg>